<svg id="Calque_1" data-name="Calque 1" xmlns="http://www.w3.org/2000/svg" xmlns:xlink="http://www.w3.org/1999/xlink" viewBox="0 0 812.33 117.33"><defs><style>.cls-1{fill:#ed1d24;}.cls-2{fill:#fff;}.cls-3{fill:url(#Dégradé_sans_nom_8);}.cls-4{fill:url(#Dégradé_sans_nom_8-2);}.cls-5{fill:url(#Dégradé_sans_nom_8-3);}.cls-6{fill:url(#Dégradé_sans_nom_8-4);}.cls-7{fill:url(#Dégradé_sans_nom_8-5);}.cls-8{fill:url(#Dégradé_sans_nom_8-6);}.cls-9{fill:url(#Dégradé_sans_nom_8-7);}.cls-10{fill:url(#Dégradé_sans_nom_8-8);}.cls-11{fill:url(#Dégradé_sans_nom_8-9);}</style><linearGradient id="Dégradé_sans_nom_8" x1="587.49" y1="-20.32" x2="785.24" y2="177.43" gradientUnits="userSpaceOnUse"><stop offset="0.44" stop-color="#fff"/><stop offset="1" stop-color="#4c4c4c"/></linearGradient><linearGradient id="Dégradé_sans_nom_8-2" x1="514.68" y1="14.94" x2="714.24" y2="214.51" xlink:href="#Dégradé_sans_nom_8"/><linearGradient id="Dégradé_sans_nom_8-3" x1="424.2" y1="229.57" x2="493.77" y2="299.15" xlink:href="#Dégradé_sans_nom_8"/><linearGradient id="Dégradé_sans_nom_8-4" x1="492.74" y1="243.88" x2="551.3" y2="302.44" xlink:href="#Dégradé_sans_nom_8"/><linearGradient id="Dégradé_sans_nom_8-5" x1="548.18" y1="230.29" x2="613.01" y2="295.12" xlink:href="#Dégradé_sans_nom_8"/><linearGradient id="Dégradé_sans_nom_8-6" x1="609.95" y1="243.88" x2="668.51" y2="302.44" xlink:href="#Dégradé_sans_nom_8"/><linearGradient id="Dégradé_sans_nom_8-7" x1="671.21" y1="235.89" x2="724.67" y2="289.34" xlink:href="#Dégradé_sans_nom_8"/><linearGradient id="Dégradé_sans_nom_8-8" x1="716.83" y1="232.18" x2="778.19" y2="293.54" xlink:href="#Dégradé_sans_nom_8"/><linearGradient id="Dégradé_sans_nom_8-9" x1="764.4" y1="234.47" x2="827.86" y2="297.94" xlink:href="#Dégradé_sans_nom_8"/></defs><title>logo_character_manager</title><rect class="cls-1" width="398.94" height="117.33"/><path class="cls-2" d="M71.89,270.55q0.29,4.15.29,7.84a98.58,98.58,0,0,1-.64,12,20.89,20.89,0,0,1-2.75,8.48,12.42,12.42,0,0,1-5.88,5,26,26,0,0,1-10,1.61q-7.4,0-11.3-1.56a10.52,10.52,0,0,1-5.77-5.59A20.89,20.89,0,0,1,34.14,294a44.29,44.29,0,0,1-1.1-6.81q-0.44-4.26-.64-10.84T32.22,259.6q0-10.14.19-16.48T33,232.74a37.27,37.27,0,0,1,1.14-6.35,26.12,26.12,0,0,1,1.68-4.26,10.8,10.8,0,0,1,5.73-5.41q3.75-1.49,10.85-1.49a30.74,30.74,0,0,1,10.16,1.38,11.57,11.57,0,0,1,5.92,4.5,19.16,19.16,0,0,1,2.75,8A86.44,86.44,0,0,1,72,240.93q0,1.61,0,3.58t-0.15,4.15H57.29q0-3.46,0-5.76t-0.15-3.8q-0.1-1.49-.25-2.36L56.6,235.3q-0.39-2.19-4.15-2.19a5.36,5.36,0,0,0-2.75.52,2.63,2.63,0,0,0-1.14,1.67,11.7,11.7,0,0,0-.44,2.13q-0.15,1.21-.29,3.69T47.63,248q-0.06,4.38,0,11.42,0,7.27,0,11.65T47.82,278q0.15,2.54.29,3.81a11.67,11.67,0,0,0,.44,2.2,2.36,2.36,0,0,0,1.18,1.61,7.52,7.52,0,0,0,3.16.46q3,0,3.55-2a14.34,14.34,0,0,0,.6-2.42q0.19-1.26.29-2.82t0.15-3.57q0-2,0-4.67H71.89v-0.06Z" transform="translate(-11.72 -201.66)"/><path class="cls-2" d="M96.88,304V268.13H87.21V304H71.32V216.72H87.21V250.5h9.68V216.72h15.89V304H96.88Z" transform="translate(-11.72 -201.66)"/><path class="cls-2" d="M139.21,304l-1.73-12.57-8.37.16-1.73,12.28-14.69.06,8-87.27,24.79,0,8.73,87.5Zm-5.51-69.11h-1.08l-3.4,44,7.92-.16Z" transform="translate(-11.72 -201.66)"/><path class="cls-2" d="M274.58,270.55q0.29,4.15.29,7.84a98.58,98.58,0,0,1-.64,12,20.89,20.89,0,0,1-2.75,8.48,12.42,12.42,0,0,1-5.88,5,26,26,0,0,1-10,1.61q-7.4,0-11.3-1.56a10.52,10.52,0,0,1-5.77-5.59,20.89,20.89,0,0,1-1.68-4.38,44.29,44.29,0,0,1-1.14-6.8q-0.44-4.26-.64-10.84t-0.19-16.71q0-10.14.19-16.48t0.64-10.38a37.27,37.27,0,0,1,1.14-6.35,26.11,26.11,0,0,1,1.68-4.26,10.8,10.8,0,0,1,5.73-5.41q3.75-1.49,10.85-1.49a30.74,30.74,0,0,1,10.16,1.38,11.57,11.57,0,0,1,5.92,4.5,19.16,19.16,0,0,1,2.75,8,86.44,86.44,0,0,1,.69,11.81q0,1.61,0,3.58t-0.15,4.15H259.92q0-3.46,0-5.76t-0.15-3.8q-0.1-1.49-.25-2.36l-0.25-1.44q-0.39-2.19-4.15-2.19a5.36,5.36,0,0,0-2.75.52,2.63,2.63,0,0,0-1.14,1.67,11.71,11.71,0,0,0-.44,2.13q-0.15,1.21-.29,3.69T250.26,248q-0.06,4.38,0,11.42,0,7.27,0,11.65t0.19,6.92q0.15,2.54.29,3.81a11.67,11.67,0,0,0,.44,2.2,2.36,2.36,0,0,0,1.18,1.61,7.52,7.52,0,0,0,3.16.46q3,0,3.55-2a14.34,14.34,0,0,0,.6-2.42q0.19-1.26.29-2.82t0.15-3.57q0-2,0-4.67h14.31Z" transform="translate(-11.72 -201.66)"/><path class="cls-2" d="M285.87,304V235.16H274.12V216.72h40.34L314.35,235l-13,.13V304h-15.5Z" transform="translate(-11.72 -201.66)"/><path class="cls-2" d="M313.31,304V216.72h33.05v18.45H328.8V250.5l12.47-.07,0.22,17.65H328.8v16.49h17.44v19.37h-33Z" transform="translate(-11.72 -201.66)"/><path class="cls-2" d="M152.58,304.13l0.15-86.56s39-7,41.16,25.93c0,0,1.11,19.05-8.75,27l9.32,33.42-15.26.15-7.4-28.59-3.53.38-0.13,28.39Z" transform="translate(-11.72 -201.66)"/><path class="cls-1" d="M167.91,232.82L168,260.26s9.58,0.64,10.31-13.83S167.91,232.82,167.91,232.82Z" transform="translate(-11.72 -201.66)"/><path class="cls-2" d="M347.12,304.09l0.15-87.41s38.76-4.85,41.56,26.19c0,0,1.13,19.24-8.83,27.24l9.41,33.75L374,304l-7.47-28.89-3.57.39-0.13,28.66Z" transform="translate(-11.72 -201.66)"/><path class="cls-1" d="M362.21,231.77l0.65,28.43s9.77,0.65,10.5-14.07S362.21,231.77,362.21,231.77Z" transform="translate(-11.72 -201.66)"/><path class="cls-2" d="M220.84,304.14l-1.74-12.57-8.37.16-1.6,12-15,.2,8.21-87.11L226.78,217l9.17,87ZM215.33,235h-1.08l-3.36,44,7.92-.16Z" transform="translate(-11.72 -201.66)"/><rect class="cls-3" x="415.38" y="1.18" width="391.36" height="4.14"/><rect class="cls-4" x="416.59" y="113.03" width="395.74" height="3.38"/><path class="cls-5" d="M484.68,220.54l3.37,84.33h-9.28l-2.11-54.94-15.81,54.82h-3.79l-15.71-54.82-2.21,54.94H430l3.27-84.33h9.59L459,277.4l16.24-56.86h9.49Z" transform="translate(-11.72 -201.66)"/><path class="cls-6" d="M538.86,304.87l-4.32-17.47H509.45l-4.22,17.47h-10l20.87-84.33h11.81l21,84.33h-10Zm-26.78-28H532l-10-40.6Z" transform="translate(-11.72 -201.66)"/><path class="cls-7" d="M557.93,304.87V220.54h8.64L593.88,279V220.54h9.38v84.33H595l-27.73-59.51v59.51h-9.38Z" transform="translate(-11.72 -201.66)"/><path class="cls-8" d="M656.07,304.87l-4.32-17.47H626.66l-4.22,17.47h-10l20.87-84.33h11.81l21,84.33h-10Zm-26.78-28h19.92l-10-40.6Z" transform="translate(-11.72 -201.66)"/><path class="cls-9" d="M700.24,260.77h16.23l-0.11,36.86c-5.59,5.18-11.91,8.43-20.24,8.43-16,0-25.93-15.18-25.93-43.25,0-29,11-43.49,27.3-43.49a28.66,28.66,0,0,1,16.34,4.94l-2.43,10a25,25,0,0,0-13.49-4.46c-11.07,0-17.18,10.24-17.18,33,0,21.32,5.48,32.89,15.81,32.89A15.41,15.41,0,0,0,706.88,292L707,270.53h-6.75v-9.76Z" transform="translate(-11.72 -201.66)"/><path class="cls-10" d="M738.08,295h28.78v9.88H728.48V220.54h37.74v9.88H738.08v26.26h24.77v9.88H738.08V295Z" transform="translate(-11.72 -201.66)"/><path class="cls-11" d="M820.93,304.87H810L796.89,275H788v29.88h-9.7V220.54h17.82c14.86,0,24.14,9.4,24.14,27.11,0,12.53-4.74,21.44-13.49,25.3ZM788,230.41v34.7h7.91c9,0,14.55-5.66,14.55-17.35,0-11-5.17-17.35-14.55-17.35H788Z" transform="translate(-11.72 -201.66)"/></svg>